{"title":"Solace 2015 BRRip x264 AAC-SSN","uid":13197938,"size":1222645742,"categoryP":"video","categoryS":"movies","magnet":"?xt=urn:btih:7e02e03e5bd8753a3d5819483ad1cc0a387a1b7e&amp;dn=Solace+2015+BRRip+x264+AAC-SSN&amp;tr=udp%3A%2F%2Ftracker.leechers-paradise.org%3A6969&amp;tr=udp%3A%2F%2Fzer0day.ch%3A1337&amp;tr=udp%3A%2F%2Fopen.demonii.com%3A1337&amp;tr=udp%3A%2F%2Ftracker.coppersurfer.tk%3A6969&amp;tr=udp%3A%2F%2Fexodus.desync.com%3A6969","seeders":1,"leechers":0,"uploader":"somespirit","files":3,"time":1452513110,"description":"IMDB:  http://www.imdb.com/title/tt1291570/\r\n\r\n Source: Solace.2015.720p.BluRay.X264-AMIABLE\r\n\r\n Subtitles: English\r\n\r\n\r\n General\r\n Complete name                            : Solace 2015 BRRip x264 AAC-SSN.mkv\r\n Format                                   : Matroska\r\n Format version                           : Version 4 / Version 2\r\n File size                                : 1.14 GiB\r\n Duration                                 : 1h 41mn\r\n Overall bit rate                         : 1 611 Kbps\r\n Encoded date                             : UTC 2016-01-11 08:07:11\r\n Writing application                      : mkvmerge v8.6.1 ('Flying') 64bit\r\n Writing library                          : libebml v1.3.3 + libmatroska v1.4.4\r\n\r\n Video\r\n ID                                       : 1\r\n Format                                   : AVC\r\n Format/Info                              : Advanced Video Codec\r\n Format profile                           :   \r\n Format settings, CABAC                   : Yes\r\n Format settings, ReFrames                : 5 frames\r\n Codec ID                                 : V_MPEG4/ISO/AVC\r\n Duration                                 : 1h 41mn\r\n Bit rate                                 : 1 282 Kbps\r\n Width                                    : 900 pixels\r\n Height                                   : 372 pixels\r\n Display aspect ratio                     : 2.40:1\r\n Frame rate mode                          : Constant\r\n Frame rate                               : 23.976 (24000/1001) fps\r\n Color space                              : YUV\r\n Chroma subsampling                       : 4:2:0\r\n Bit depth                                : 8 bits\r\n Scan type                                : Progressive\r\n Bits/(Pixel*Frame)                       : 0.192\r\n Stream size                              : 926 MiB (79%)\r\n Writing library                          : x264 core 148 r2638 7599210\r\n Language                                 : English\r\n Default                                  : Yes\r\n Forced                                   : No\r\n\r\n Audio\r\n ID                                       : 2\r\n Format                                   : AAC\r\n Format/Info                              : Advanced Audio Codec\r\n Format profile                           : LC\r\n Codec ID                                 : A_AAC\r\n Duration                                 : 1h 41mn\r\n Bit rate                                 : 329 Kbps\r\n Channel(s)                               : 6 channels\r\n Channel positions                        : Front: L C R, Side: L R, LFE\r\n Sampling rate                            : 32.0 KHz\r\n Frame rate                               : 31.250 fps (1024 spf)\r\n Compression mode                         : Lossy\r\n Stream size                              : 238 MiB (20%)\r\n Default                                  : Yes\r\n Forced                                   : No\r\n\r\n \nhttp://lookpic.com/O/i2/24/AoAalHUh.png\r\n \nhttp://lookpic.com/O/i2/400/TxdUTZZa.png\r\n \nhttp://lookpic.com/O/i2/517/afhK4LjK.png","torrent":{"xt":"urn:btih:7e02e03e5bd8753a3d5819483ad1cc0a387a1b7e","amp;dn":"Solace+2015+BRRip+x264+AAC-SSN","amp;tr":["udp%3A%2F%2Ftracker.leechers-paradise.org%3A6969","udp%3A%2F%2Fzer0day.ch%3A1337","udp%3A%2F%2Fopen.demonii.com%3A1337","udp%3A%2F%2Ftracker.coppersurfer.tk%3A6969","udp%3A%2F%2Fexodus.desync.com%3A6969"],"infoHash":"7e02e03e5bd8753a3d5819483ad1cc0a387a1b7e","infoHashBuffer":{"type":"Buffer","data":[126,2,224,62,91,216,117,58,61,88,25,72,58,209,204,10,56,122,27,126]},"announce":[],"urlList":[]}}